<?xml version="1.0" encoding="UTF-8"?>
<svg width="410" height="518" xmlns="http://www.w3.org/2000/svg">
<style>text {
    color: #a89f9bff;
}

tspan {
    fill: #f3f3f3;
}

/* @media (prefers-color-scheme: dark) {
}
@media (prefers-color-scheme: light) {
    tspan {
        fill: #333;
        fill: #f3f3f3;
    }
} */

@keyframes fadeIn {
    from {
        opacity: 0;
    }
    to {
        opacity: 1;
    }
}
@keyframes slideIn {
    from {
        width: 0;
    }
    to {
        width: 660;
    }
}

#lang_legend,
#title {
    opacity: 0;
    animation: fadeIn 1s ease-in forwards;
}
#bar_back {
    animation: slideIn 1.7s ease-in forwards;
}
</style>
<rect id="border" x="1" y="1" width="408" height="516" fill='#19140fff' stroke-width="1" rx="15" ry="15" />
<text id="title" x="20" y="40" font-size="18" font-weight="bold" fill='#db4c0fff' font-family="system-ui, -apple-system, sans-serif">Most Used Languages</text>

<defs>
    <clipPath id="roundedClip">
        <rect id="bar_back" x="20" y="60" width="370" height="10" rx="5" ry="5">
        </rect>
    </clipPath>
</defs>
<rect width="370" height="10" x="20" y="60" rx="5" ry="5" fill='#ccc' />
<g clip-path="url(#roundedClip)">
    <rect x="20" y="60" width="52" height="10" fill="#e34c26"> <title>HTML 14.00%</title> </rect>
    <rect x="72" y="60" width="51" height="10" fill="#4F5D95"> <title>PHP 13.73%</title> </rect>
    <rect x="123" y="60" width="38" height="10" fill="#04133b"> <title>WebAssembly 10.14%</title> </rect>
    <rect x="161" y="60" width="28" height="10" fill="#555555"> <title>C 7.70%</title> </rect>
    <rect x="189" y="60" width="25" height="10" fill="#3178c6"> <title>TypeScript 6.69%</title> </rect>
    <rect x="214" y="60" width="22" height="10" fill="#b07219"> <title>Java 5.93%</title> </rect>
    <rect x="236" y="60" width="21" height="10" fill="#663399"> <title>CSS 5.57%</title> </rect>
    <rect x="257" y="60" width="20" height="10" fill="#000080"> <title>Lua 5.36%</title> </rect>
    <rect x="277" y="60" width="20" height="10" fill="#41b883"> <title>Vue 5.31%</title> </rect>
    <rect x="297" y="60" width="17" height="10" fill="#3572A5"> <title>Python 4.73%</title> </rect>
    <rect x="314" y="60" width="17" height="10" fill="#878787"> <title>Hack 4.65%</title> </rect>
    <rect x="331" y="60" width="13" height="10" fill="#f1e05a"> <title>JavaScript 3.44%</title> </rect>
    <rect x="344" y="60" width="11" height="10" fill="#c6538c"> <title>SCSS 2.92%</title> </rect>
    <rect x="355" y="60" width="7" height="10" fill="#f34b7d"> <title>C++ 1.79%</title> </rect>
    <rect x="362" y="60" width="6" height="10" fill="#012456"> <title>PowerShell 1.66%</title> </rect>
    <rect x="368" y="60" width="5" height="10" fill="#724b3b"> <title>Mustache 1.37%</title> </rect>
    <rect x="373" y="60" width="5" height="10" fill="#ff5a03"> <title>Astro 1.35%</title> </rect>
    <rect x="378" y="60" width="3" height="10" fill="#178600"> <title>C# 0.93%</title> </rect>
    <rect x="381" y="60" width="2" height="10" fill="#00ADD8"> <title>Go 0.57%</title> </rect>
    <rect x="383" y="60" width="2" height="10" fill="#DA3434"> <title>CMake 0.50%</title> </rect>
    <rect x="385" y="60" width="2" height="10" fill="#dea584"> <title>Rust 0.49%</title> </rect>
    <rect x="387" y="60" width="1" height="10" fill="#00B4AB"> <title>Dart 0.40%</title> </rect>
    <rect x="388" y="60" width="1" height="10" fill="#384d54"> <title>Dockerfile 0.24%</title> </rect>
    <rect x="389" y="60" width="1" height="10" fill="#89e051"> <title>Shell 0.23%</title> </rect>
    <rect x="390" y="60" width="0" height="10" fill="#cccccc"> <title>Go Template 0.07%</title> </rect>
    <rect x="390" y="60" width="0" height="10" fill="#F05138"> <title>Swift 0.06%</title> </rect>
    <rect x="390" y="60" width="0" height="10" fill="#f0c040"> <title>Smarty 0.05%</title> </rect>
    <rect x="390" y="60" width="0" height="10" fill="#a91e50"> <title>EJS 0.05%</title> </rect>
    <rect x="390" y="60" width="0" height="10" fill="#844FBA"> <title>HCL 0.03%</title> </rect>
    <rect x="390" y="60" width="0" height="10" fill="#cccccc"> <title>Linker Script 0.01%</title> </rect>
    <rect x="390" y="60" width="0" height="10" fill="#15dcdc"> <title>VBScript 0.01%</title> </rect>
    <rect x="390" y="60" width="0" height="10" fill="#C1F12E"> <title>Batchfile 0.01%</title> </rect>
    <rect x="390" y="60" width="0" height="10" fill="#A97BFF"> <title>Kotlin 0.01%</title> </rect>
    <rect x="390" y="60" width="0" height="10" fill="#438eff"> <title>Objective-C 0.00%</title> </rect>
</g>
<g id="lang_legend">
<circle cx="30" cy="100" r="6" fill="#e34c26" />
<text x="46" y="104" font-size="13" font-family="system-ui, -apple-system, sans-serif" fill='currentColor'><tspan>HTML</tspan> 14.00%</text>
<circle cx="225" cy="100" r="6" fill="#4F5D95" />
<text x="241" y="104" font-size="13" font-family="system-ui, -apple-system, sans-serif" fill='currentColor'><tspan>PHP</tspan> 13.73%</text>
<circle cx="30" cy="124" r="6" fill="#04133b" />
<text x="46" y="128" font-size="13" font-family="system-ui, -apple-system, sans-serif" fill='currentColor'><tspan>WebAssembly</tspan> 10.14%</text>
<circle cx="225" cy="124" r="6" fill="#555555" />
<text x="241" y="128" font-size="13" font-family="system-ui, -apple-system, sans-serif" fill='currentColor'><tspan>C</tspan> 7.70%</text>
<circle cx="30" cy="148" r="6" fill="#3178c6" />
<text x="46" y="152" font-size="13" font-family="system-ui, -apple-system, sans-serif" fill='currentColor'><tspan>TypeScript</tspan> 6.69%</text>
<circle cx="225" cy="148" r="6" fill="#b07219" />
<text x="241" y="152" font-size="13" font-family="system-ui, -apple-system, sans-serif" fill='currentColor'><tspan>Java</tspan> 5.93%</text>
<circle cx="30" cy="172" r="6" fill="#663399" />
<text x="46" y="176" font-size="13" font-family="system-ui, -apple-system, sans-serif" fill='currentColor'><tspan>CSS</tspan> 5.57%</text>
<circle cx="225" cy="172" r="6" fill="#000080" />
<text x="241" y="176" font-size="13" font-family="system-ui, -apple-system, sans-serif" fill='currentColor'><tspan>Lua</tspan> 5.36%</text>
<circle cx="30" cy="196" r="6" fill="#41b883" />
<text x="46" y="200" font-size="13" font-family="system-ui, -apple-system, sans-serif" fill='currentColor'><tspan>Vue</tspan> 5.31%</text>
<circle cx="225" cy="196" r="6" fill="#3572A5" />
<text x="241" y="200" font-size="13" font-family="system-ui, -apple-system, sans-serif" fill='currentColor'><tspan>Python</tspan> 4.73%</text>
<circle cx="30" cy="220" r="6" fill="#878787" />
<text x="46" y="224" font-size="13" font-family="system-ui, -apple-system, sans-serif" fill='currentColor'><tspan>Hack</tspan> 4.65%</text>
<circle cx="225" cy="220" r="6" fill="#f1e05a" />
<text x="241" y="224" font-size="13" font-family="system-ui, -apple-system, sans-serif" fill='currentColor'><tspan>JavaScript</tspan> 3.44%</text>
<circle cx="30" cy="244" r="6" fill="#c6538c" />
<text x="46" y="248" font-size="13" font-family="system-ui, -apple-system, sans-serif" fill='currentColor'><tspan>SCSS</tspan> 2.92%</text>
<circle cx="225" cy="244" r="6" fill="#f34b7d" />
<text x="241" y="248" font-size="13" font-family="system-ui, -apple-system, sans-serif" fill='currentColor'><tspan>C++</tspan> 1.79%</text>
<circle cx="30" cy="268" r="6" fill="#012456" />
<text x="46" y="272" font-size="13" font-family="system-ui, -apple-system, sans-serif" fill='currentColor'><tspan>PowerShell</tspan> 1.66%</text>
<circle cx="225" cy="268" r="6" fill="#724b3b" />
<text x="241" y="272" font-size="13" font-family="system-ui, -apple-system, sans-serif" fill='currentColor'><tspan>Mustache</tspan> 1.37%</text>
<circle cx="30" cy="292" r="6" fill="#ff5a03" />
<text x="46" y="296" font-size="13" font-family="system-ui, -apple-system, sans-serif" fill='currentColor'><tspan>Astro</tspan> 1.35%</text>
<circle cx="225" cy="292" r="6" fill="#178600" />
<text x="241" y="296" font-size="13" font-family="system-ui, -apple-system, sans-serif" fill='currentColor'><tspan>C#</tspan> 0.93%</text>
<circle cx="30" cy="316" r="6" fill="#00ADD8" />
<text x="46" y="320" font-size="13" font-family="system-ui, -apple-system, sans-serif" fill='currentColor'><tspan>Go</tspan> 0.57%</text>
<circle cx="225" cy="316" r="6" fill="#DA3434" />
<text x="241" y="320" font-size="13" font-family="system-ui, -apple-system, sans-serif" fill='currentColor'><tspan>CMake</tspan> 0.50%</text>
<circle cx="30" cy="340" r="6" fill="#dea584" />
<text x="46" y="344" font-size="13" font-family="system-ui, -apple-system, sans-serif" fill='currentColor'><tspan>Rust</tspan> 0.49%</text>
<circle cx="225" cy="340" r="6" fill="#00B4AB" />
<text x="241" y="344" font-size="13" font-family="system-ui, -apple-system, sans-serif" fill='currentColor'><tspan>Dart</tspan> 0.40%</text>
<circle cx="30" cy="364" r="6" fill="#384d54" />
<text x="46" y="368" font-size="13" font-family="system-ui, -apple-system, sans-serif" fill='currentColor'><tspan>Dockerfile</tspan> 0.24%</text>
<circle cx="225" cy="364" r="6" fill="#89e051" />
<text x="241" y="368" font-size="13" font-family="system-ui, -apple-system, sans-serif" fill='currentColor'><tspan>Shell</tspan> 0.23%</text>
<circle cx="30" cy="388" r="6" fill="#cccccc" />
<text x="46" y="392" font-size="13" font-family="system-ui, -apple-system, sans-serif" fill='currentColor'><tspan>Go Template</tspan> 0.07%</text>
<circle cx="225" cy="388" r="6" fill="#F05138" />
<text x="241" y="392" font-size="13" font-family="system-ui, -apple-system, sans-serif" fill='currentColor'><tspan>Swift</tspan> 0.06%</text>
<circle cx="30" cy="412" r="6" fill="#f0c040" />
<text x="46" y="416" font-size="13" font-family="system-ui, -apple-system, sans-serif" fill='currentColor'><tspan>Smarty</tspan> 0.05%</text>
<circle cx="225" cy="412" r="6" fill="#a91e50" />
<text x="241" y="416" font-size="13" font-family="system-ui, -apple-system, sans-serif" fill='currentColor'><tspan>EJS</tspan> 0.05%</text>
<circle cx="30" cy="436" r="6" fill="#844FBA" />
<text x="46" y="440" font-size="13" font-family="system-ui, -apple-system, sans-serif" fill='currentColor'><tspan>HCL</tspan> 0.03%</text>
<circle cx="225" cy="436" r="6" fill="#cccccc" />
<text x="241" y="440" font-size="13" font-family="system-ui, -apple-system, sans-serif" fill='currentColor'><tspan>Linker Script</tspan> 0.01%</text>
<circle cx="30" cy="460" r="6" fill="#15dcdc" />
<text x="46" y="464" font-size="13" font-family="system-ui, -apple-system, sans-serif" fill='currentColor'><tspan>VBScript</tspan> 0.01%</text>
<circle cx="225" cy="460" r="6" fill="#C1F12E" />
<text x="241" y="464" font-size="13" font-family="system-ui, -apple-system, sans-serif" fill='currentColor'><tspan>Batchfile</tspan> 0.01%</text>
<circle cx="30" cy="484" r="6" fill="#A97BFF" />
<text x="46" y="488" font-size="13" font-family="system-ui, -apple-system, sans-serif" fill='currentColor'><tspan>Kotlin</tspan> 0.01%</text>
<circle cx="225" cy="484" r="6" fill="#438eff" />
<text x="241" y="488" font-size="13" font-family="system-ui, -apple-system, sans-serif" fill='currentColor'><tspan>Objective-C</tspan> 0.00%</text>
</g>
</svg>
